M48
; DRILL file {KiCad 7.0.11-7.0.11~ubuntu22.04.1} date czw, 25 lip 2024, 18:58:18
; FORMAT={-:-/ absolute / inch / decimal}
; #@! TF.CreationDate,2024-07-25T18:58:18+02:00
; #@! TF.GenerationSoftware,Kicad,Pcbnew,7.0.11-7.0.11~ubuntu22.04.1
; #@! TF.FileFunction,Plated,1,2,PTH
FMAT,2
INCH
; #@! TA.AperFunction,Plated,PTH,ViaDrill
T1C0.0118
; #@! TA.AperFunction,Plated,PTH,ComponentDrill
T2C0.0315
; #@! TA.AperFunction,Plated,PTH,ComponentDrill
T3C0.0354
; #@! TA.AperFunction,Plated,PTH,ComponentDrill
T4C0.0394
; #@! TA.AperFunction,Plated,PTH,ComponentDrill
T5C0.0433
; #@! TA.AperFunction,Plated,PTH,ComponentDrill
T6C0.0598
%
G90
G05
T1
X4.3Y-1.2
X4.3Y-1.4
X4.3Y-1.6
X4.3Y-1.8
X4.3Y-2.2
X4.3Y-2.4
X4.3Y-2.6
X4.3Y-2.8
X4.3Y-3.0
X4.3Y-3.2
X4.3Y-3.4
X4.3Y-4.0
X4.3Y-4.2
X4.3Y-4.4
X4.3Y-4.6
X4.3Y-4.8
X4.3Y-5.0
X4.3Y-5.4
X4.3Y-5.6
X4.3Y-5.8
X4.7Y-1.2
X4.7Y-1.4
X4.7Y-1.6
X4.7Y-2.8
X4.7Y-3.2
X4.7Y-3.4
X4.7Y-3.6
X4.7Y-3.8
X4.7Y-4.8
X4.7Y-5.0
X4.7Y-5.4
X4.7Y-5.6
X4.7Y-5.8
X4.8Y-2.9
X4.9Y-3.0
X5.1Y-1.2
X5.1Y-1.4
X5.1Y-2.0
X5.1Y-2.2
X5.1Y-3.2
X5.1Y-3.4
X5.1Y-3.6
X5.1Y-3.8
X5.1Y-4.8
X5.1Y-5.0
X5.1Y-5.4
X5.1Y-5.6
X5.1Y-5.8
X5.4Y-3.1
X5.5Y-1.2
X5.5Y-1.4
X5.5Y-1.8
X5.5Y-2.2
X5.5Y-4.6
X5.5Y-4.8
X5.5Y-5.4
X5.5Y-5.6
X5.5Y-5.8
X5.9Y-1.2
X5.9Y-1.4
X5.9Y-1.8
X5.9Y-2.2
X5.9Y-4.3
X5.9Y-4.4
X5.9Y-4.8
X5.9Y-5.0
X5.9Y-5.4
X5.9Y-5.6
X5.9Y-5.8
X6.3Y-1.2
X6.3Y-1.4
X6.3Y-1.6
X6.3Y-1.8
X6.3Y-2.0
X6.3Y-2.2
X6.3Y-4.3
X6.3Y-4.8
X6.3Y-5.0
X6.3Y-5.4
X6.3Y-5.8
X6.7Y-1.2
X6.7Y-1.4
X6.7Y-1.6
X6.7Y-1.8
X6.7Y-2.0
X6.7Y-3.0
X6.7Y-3.2
X6.7Y-3.4
X6.7Y-4.8
X6.7Y-5.2
X6.7Y-5.4
X6.7Y-5.6
X6.7Y-5.8
X7.1Y-1.2
X7.1Y-1.4
X7.1Y-1.6
X7.1Y-1.8
X7.1Y-2.0
X7.1Y-3.0
X7.1Y-3.2
X7.1Y-3.4
X7.1Y-4.4
X7.1Y-4.6
X7.1Y-4.8
X7.1Y-5.2
X7.1Y-5.4
X7.1Y-5.6
X7.1Y-5.8
X7.5Y-1.6
X7.5Y-1.8
X7.5Y-2.0
X7.5Y-2.2
X7.5Y-2.4
X7.5Y-2.6
X7.5Y-2.8
X7.5Y-3.0
X7.5Y-3.2
X7.5Y-3.4
X7.5Y-3.6
X7.5Y-3.8
X7.5Y-4.0
X7.5Y-4.2
X7.5Y-4.4
X7.5Y-4.6
X7.5Y-4.8
X7.5Y-5.0
X7.5Y-5.2
X7.5Y-5.4
X7.5Y-5.6
T2
X4.9Y-3.5
X4.9Y-3.7
X5.0969Y-3.5
X5.0969Y-3.7
X5.2Y-3.1031
X5.2Y-3.3
X5.4Y-2.0
X5.4Y-3.2
X5.4Y-3.5
X5.4Y-3.6921
X5.5969Y-3.2
X5.7Y-5.5
X5.8Y-2.0
X5.8Y-2.3
X5.8Y-2.4
X5.8Y-2.5
X5.8Y-2.6
X5.8Y-2.7
X5.8Y-2.8
X5.8Y-2.9
X5.8Y-3.0
X5.8Y-3.1
X5.8Y-3.2
X5.8Y-3.3
X5.8Y-3.4
X5.8Y-3.5
X5.8Y-3.6
X5.8Y-3.7
X5.8Y-3.8
X5.8Y-3.9
X5.8Y-4.0
X5.8Y-4.1
X5.8Y-4.2
X5.8969Y-5.5
X6.4Y-2.3
X6.4Y-2.4
X6.4Y-2.5
X6.4Y-2.6
X6.4Y-2.7
X6.4Y-2.8
X6.4Y-2.9
X6.4Y-3.0
X6.4Y-3.1
X6.4Y-3.2
X6.4Y-3.3
X6.4Y-3.4
X6.4Y-3.5
X6.4Y-3.6
X6.4Y-3.7
X6.4Y-3.8
X6.4Y-3.9
X6.4Y-4.0
X6.4Y-4.1
X6.4Y-4.2
X6.6Y-3.1
X6.6Y-3.3
X6.6Y-4.4
X6.6Y-4.6
X6.7031Y-5.5
X6.7969Y-3.1
X6.7969Y-3.3
X6.9Y-5.5
X7.0Y-4.4
X7.0Y-4.6
T3
X7.3Y-4.7
X7.3Y-5.2
X7.4Y-4.7
X7.4Y-5.2
T4
X4.5Y-2.3
X4.5Y-2.4
X4.5Y-2.5
X4.5Y-2.6
X4.5Y-2.7
X4.5Y-2.8
X4.5Y-2.9
X4.5Y-3.0
X4.5Y-3.1
X4.5Y-4.0
X4.5Y-4.1
X4.5Y-4.2
X4.5Y-4.3
X4.5Y-4.4
X4.5Y-4.5
X4.5Y-4.6
X4.5Y-4.7
X5.1Y-1.6
X5.1Y-1.7
X5.1Y-1.8
X5.2Y-1.6
X5.2Y-1.7
X5.2Y-1.8
X5.5Y-5.0
X5.5Y-5.1969
X5.6Y-4.6
X5.6Y-4.7
X5.7Y-4.6
X5.7Y-4.7
X5.8Y-4.6
X5.8Y-4.7
X5.9Y-4.6
X5.9Y-4.7
X6.8Y-5.0
X6.9969Y-5.0
X7.1Y-2.1
X7.1Y-2.2
X7.1Y-2.3
X7.1Y-2.4
X7.1Y-2.5
X7.1Y-2.6
X7.1Y-2.7
X7.1Y-2.8
X7.1Y-2.9
X7.1Y-3.5
X7.1Y-3.6
X7.1Y-3.7
X7.1Y-3.8
X7.1Y-3.9
X7.1Y-4.0
X7.1Y-4.1
X7.1Y-4.2
T5
X4.1441Y-1.9114
X4.1441Y-2.0886
X4.1441Y-3.6228
X4.1441Y-3.8
X4.4Y-1.9114
X4.4Y-2.0886
X4.4Y-3.6228
X4.4Y-3.8
X4.7Y-5.2
X5.0Y-5.2
X6.15Y-5.2
X6.2Y-5.6
X6.3Y-5.6
X6.4Y-5.6
X6.45Y-5.2
T6
X4.1Y-5.2
X4.1Y-5.4
M30
