%TF.GenerationSoftware,KiCad,Pcbnew,7.0.11-7.0.11~ubuntu22.04.1*%
%TF.CreationDate,2024-07-25T18:57:52+02:00*%
%TF.ProjectId,mcuboard_hw,6d637562-6f61-4726-945f-68772e6b6963,A*%
%TF.SameCoordinates,Original*%
%TF.FileFunction,Soldermask,Bot*%
%TF.FilePolarity,Negative*%
%FSLAX46Y46*%
G04 Gerber Fmt 4.6, Leading zero omitted, Abs format (unit mm)*
G04 Created by KiCad (PCBNEW 7.0.11-7.0.11~ubuntu22.04.1) date 2024-07-25 18:57:52*
%MOMM*%
%LPD*%
G01*
G04 APERTURE LIST*
%ADD10R,2.200000X2.200000*%
%ADD11O,2.200000X2.200000*%
%ADD12C,2.500000*%
%ADD13R,1.905000X2.000000*%
%ADD14O,1.905000X2.000000*%
%ADD15C,2.000000*%
%ADD16C,1.600000*%
%ADD17O,1.600000X1.600000*%
%ADD18R,1.800000X1.800000*%
%ADD19C,1.800000*%
%ADD20C,1.500000*%
%ADD21R,1.700000X1.700000*%
%ADD22O,1.700000X1.700000*%
%ADD23R,2.000000X2.000000*%
%ADD24R,3.000000X3.000000*%
%ADD25C,3.000000*%
%ADD26R,1.600000X1.600000*%
G04 APERTURE END LIST*
D10*
%TO.C,D4*%
X156210000Y-132080000D03*
D11*
X163830000Y-132080000D03*
%TD*%
D12*
%TO.C,*%
X104140000Y-33020000D03*
%TD*%
D13*
%TO.C,U2*%
X157480000Y-142240000D03*
D14*
X160020000Y-142240000D03*
X162560000Y-142240000D03*
%TD*%
D15*
%TO.C,SW1*%
X105260000Y-48550000D03*
X111760000Y-48550000D03*
X105260000Y-53050000D03*
X111760000Y-53050000D03*
%TD*%
D16*
%TO.C,C7*%
X149780000Y-139700000D03*
X144780000Y-139700000D03*
%TD*%
%TO.C,R3*%
X167640000Y-116840000D03*
D17*
X177800000Y-116840000D03*
%TD*%
D16*
%TO.C,C8*%
X170260000Y-139700000D03*
X175260000Y-139700000D03*
%TD*%
D12*
%TO.C,*%
X190500000Y-147320000D03*
%TD*%
D16*
%TO.C,C2*%
X129460000Y-88900000D03*
X124460000Y-88900000D03*
%TD*%
%TO.C,C4*%
X172640000Y-83820000D03*
X167640000Y-83820000D03*
%TD*%
D18*
%TO.C,D1*%
X187960000Y-119380000D03*
D19*
X185420000Y-119380000D03*
%TD*%
D20*
%TO.C,Y1*%
X137160000Y-88900000D03*
X137160000Y-93780000D03*
%TD*%
D18*
%TO.C,D3*%
X187960000Y-132080000D03*
D19*
X185420000Y-132080000D03*
%TD*%
D16*
%TO.C,R1*%
X147320000Y-50800000D03*
D17*
X137160000Y-50800000D03*
%TD*%
D21*
%TO.C,J6*%
X114300000Y-58420000D03*
D22*
X114300000Y-60960000D03*
X114300000Y-63500000D03*
X114300000Y-66040000D03*
X114300000Y-68580000D03*
X114300000Y-71120000D03*
X114300000Y-73660000D03*
X114300000Y-76200000D03*
X114300000Y-78740000D03*
%TD*%
D23*
%TO.C,C9*%
X172720000Y-127000000D03*
D15*
X177720000Y-127000000D03*
%TD*%
D21*
%TO.C,J3*%
X180340000Y-106680000D03*
D22*
X180340000Y-104140000D03*
X180340000Y-101600000D03*
X180340000Y-99060000D03*
X180340000Y-96520000D03*
X180340000Y-93980000D03*
X180340000Y-91440000D03*
X180340000Y-88900000D03*
%TD*%
D12*
%TO.C,*%
X190500000Y-33020000D03*
%TD*%
D16*
%TO.C,R2*%
X167640000Y-111760000D03*
D17*
X177800000Y-111760000D03*
%TD*%
D21*
%TO.C,J4*%
X149860000Y-116840000D03*
D22*
X149860000Y-119380000D03*
X147320000Y-116840000D03*
X147320000Y-119380000D03*
X144780000Y-116840000D03*
X144780000Y-119380000D03*
X142240000Y-116840000D03*
X142240000Y-119380000D03*
%TD*%
D24*
%TO.C,J8*%
X104140000Y-137160000D03*
D25*
X104140000Y-132080000D03*
%TD*%
D21*
%TO.C,J1*%
X129540000Y-40640000D03*
D22*
X132080000Y-40640000D03*
X129540000Y-43180000D03*
X132080000Y-43180000D03*
X129540000Y-45720000D03*
X132080000Y-45720000D03*
%TD*%
D16*
%TO.C,C1*%
X129460000Y-93980000D03*
X124460000Y-93980000D03*
%TD*%
D26*
%TO.C,U1*%
X147320000Y-58420000D03*
D17*
X147320000Y-60960000D03*
X147320000Y-63500000D03*
X147320000Y-66040000D03*
X147320000Y-68580000D03*
X147320000Y-71120000D03*
X147320000Y-73660000D03*
X147320000Y-76200000D03*
X147320000Y-78740000D03*
X147320000Y-81280000D03*
X147320000Y-83820000D03*
X147320000Y-86360000D03*
X147320000Y-88900000D03*
X147320000Y-91440000D03*
X147320000Y-93980000D03*
X147320000Y-96520000D03*
X147320000Y-99060000D03*
X147320000Y-101600000D03*
X147320000Y-104140000D03*
X147320000Y-106680000D03*
X162560000Y-106680000D03*
X162560000Y-104140000D03*
X162560000Y-101600000D03*
X162560000Y-99060000D03*
X162560000Y-96520000D03*
X162560000Y-93980000D03*
X162560000Y-91440000D03*
X162560000Y-88900000D03*
X162560000Y-86360000D03*
X162560000Y-83820000D03*
X162560000Y-81280000D03*
X162560000Y-78740000D03*
X162560000Y-76200000D03*
X162560000Y-73660000D03*
X162560000Y-71120000D03*
X162560000Y-68580000D03*
X162560000Y-66040000D03*
X162560000Y-63500000D03*
X162560000Y-60960000D03*
X162560000Y-58420000D03*
%TD*%
D16*
%TO.C,C5*%
X137160000Y-81280000D03*
X142160000Y-81280000D03*
%TD*%
D10*
%TO.C,D2*%
X127000000Y-132080000D03*
D11*
X119380000Y-132080000D03*
%TD*%
D12*
%TO.C,*%
X104140000Y-147320000D03*
%TD*%
D16*
%TO.C,C10*%
X132080000Y-78820000D03*
X132080000Y-83820000D03*
%TD*%
%TO.C,C3*%
X167640000Y-78740000D03*
X172640000Y-78740000D03*
%TD*%
D15*
%TO.C,SW2*%
X111760000Y-96520000D03*
X105260000Y-96520000D03*
X111760000Y-92020000D03*
X105260000Y-92020000D03*
%TD*%
D21*
%TO.C,J5*%
X114300000Y-101600000D03*
D22*
X114300000Y-104140000D03*
X114300000Y-106680000D03*
X114300000Y-109220000D03*
X114300000Y-111760000D03*
X114300000Y-114300000D03*
X114300000Y-116840000D03*
X114300000Y-119380000D03*
%TD*%
D21*
%TO.C,J2*%
X180340000Y-53340000D03*
D22*
X180340000Y-55880000D03*
X180340000Y-58420000D03*
X180340000Y-60960000D03*
X180340000Y-63500000D03*
X180340000Y-66040000D03*
X180340000Y-68580000D03*
X180340000Y-71120000D03*
X180340000Y-73660000D03*
%TD*%
D23*
%TO.C,C6*%
X139700000Y-132000000D03*
D15*
X139700000Y-127000000D03*
%TD*%
M02*
